2.2Hzlow3min_grf.mot
version=1
nRows=17
nColumns 19
inDegrees=yes
endheader
time	1_ground_force_vx	1_ground_force_vy	1_ground_force_vz	1_ground_force_px	1_ground_force_py	1_ground_force_pz	1_ground_torque_x	1_ground_torque_y	1_ground_torque_z	2_ground_force_vx	2_ground_force_vy	2_ground_force_vz	2_ground_force_px	2_ground_force_py	2_ground_force_pz	2_ground_torque_x	2_ground_torque_y	2_ground_torque_z
            2.502500	            5.126616	          254.447493	          -20.291176	           -0.186601	            0.006181	           -0.393617	           -0.007805	           -0.387364	            0.030891	           17.950905	          141.829910	            9.179784	           -0.196003	            0.005763	           -0.693914	            0.091375	            0.721953	            0.046728
            2.503000	            5.675924	          259.494872	          -20.225042	           -0.186894	            0.006179	           -0.393123	           -0.017404	           -0.795667	            0.062014	           17.989261	          144.222829	            9.516803	           -0.194901	            0.005768	           -0.694312	            0.086978	            0.697318	            0.046014
            2.503500	            6.086504	          262.381759	          -20.809826	           -0.186973	            0.006182	           -0.393728	           -0.022801	           -0.982928	            0.077957	           18.449182	          146.617939	            9.665929	           -0.195711	            0.005765	           -0.694266	            0.070820	            0.562815	            0.037104
            2.504000	            6.587548	          266.352026	          -21.802902	           -0.187230	            0.006179	           -0.393147	           -0.018201	           -0.735934	            0.060242	           18.772662	          147.906662	           10.092742	           -0.195663	            0.005765	           -0.694193	            0.073467	            0.578837	            0.039498
            2.504500	            6.536721	          269.964802	          -23.529854	           -0.187178	            0.006177	           -0.392724	           -0.008377	           -0.345964	            0.030154	           18.907417	          149.562991	           10.520949	           -0.195243	            0.005767	           -0.694514	            0.087118	            0.689126	            0.048476
            2.505000	            6.166329	          272.493955	          -24.802088	           -0.187167	            0.006180	           -0.393350	           -0.002072	           -0.091549	            0.008333	           18.763165	          150.665045	           11.181944	           -0.195427	            0.005764	           -0.693636	            0.091282	            0.732977	            0.054400
            2.505500	            5.245914	          277.005108	          -25.881030	           -0.187701	            0.006177	           -0.392769	           -0.004357	           -0.230056	            0.021495	           18.563946	          153.977852	           11.522348	           -0.196020	            0.005769	           -0.695622	            0.099066	            0.821700	            0.061489
            2.506000	            5.106735	          280.431929	          -26.278705	           -0.187679	            0.006178	           -0.392917	           -0.011274	           -0.619091	            0.058014	           18.229456	          155.817329	           11.763699	           -0.196091	            0.005768	           -0.695581	            0.096710	            0.826632	            0.062408
            2.506500	            5.380401	          284.939577	          -26.489344	           -0.188161	            0.006177	           -0.392644	           -0.018980	           -1.005180	            0.093446	           17.943080	          157.289166	           11.862931	           -0.195700	            0.005769	           -0.695473	            0.091841	            0.805080	            0.060720
            2.507000	            5.378620	          289.087487	          -26.884269	           -0.188518	            0.006176	           -0.392426	           -0.020605	           -1.107447	            0.102989	           18.122505	          159.499623	           11.870736	           -0.195569	            0.005773	           -0.696282	            0.080750	            0.710698	            0.052894
            2.507500	            5.926013	          292.155815	          -27.743756	           -0.188291	            0.006179	           -0.393089	           -0.015775	           -0.777736	            0.073856	           18.119408	          160.418516	           12.390230	           -0.195582	            0.005768	           -0.695160	            0.086433	            0.765225	            0.059104
            2.508000	            6.242302	          296.849273	          -29.237701	           -0.188458	            0.006177	           -0.392734	           -0.004743	           -0.225544	            0.022215	           18.017918	          162.626451	           12.820508	           -0.195748	            0.005771	           -0.696117	            0.086541	            0.781105	            0.061578
            2.508500	            5.688535	          300.639888	          -30.412357	           -0.188427	            0.006179	           -0.393158	           -0.001437	           -0.075969	            0.007685	           18.150778	          164.834395	           13.485326	           -0.196044	            0.005771	           -0.696452	            0.090957	            0.826014	            0.067577
            2.509000	            5.134409	          305.151898	          -31.675637	           -0.188533	            0.006176	           -0.392536	           -0.003368	           -0.200148	            0.020776	           18.003125	          166.857853	           13.961895	           -0.195732	            0.005772	           -0.696173	            0.095985	            0.889615	            0.074439
            2.509500	            4.626760	          309.302463	          -32.711289	           -0.188747	            0.006178	           -0.392871	           -0.011800	           -0.788823	            0.083425	           17.625085	          167.776564	           14.153052	           -0.195817	            0.005770	           -0.695832	            0.091865	            0.874483	            0.073768
            2.510000	            4.074944	          313.630306	          -33.058220	           -0.189096	            0.006178	           -0.393067	           -0.015365	           -1.182612	            0.124653	           17.055863	          169.797830	           14.817512	           -0.196148	            0.005769	           -0.695960	            0.086387	            0.860013	            0.075050
            2.510500	            4.026148	          317.960409	          -33.910821	           -0.189260	            0.006179	           -0.393257	           -0.015812	           -1.248729	            0.133178	           16.582150	          171.268488	           15.057608	           -0.195499	            0.005770	           -0.695595	            0.088800	            0.917169	            0.080636
